<?xml version="1.0" encoding="UTF-8"?>
<svg version="1.1" xmlns="http://www.w3.org/2000/svg" width="200" height="200">
<path d="M0 0 C66 0 132 0 200 0 C200 66 200 132 200 200 C134 200 68 200 0 200 C0 134 0 68 0 0 Z " fill="#FDFDFD" transform="translate(0,0)"/>
<path d="M0 0 C1.98 0 3.96 0 6 0 C6 1.32 6 2.64 6 4 C6.66 4 7.32 4 8 4 C8.125 10.75 8.125 10.75 7 13 C8.98260599 12.57835981 10.96107245 12.13721222 12.9375 11.6875 C14.03964844 11.44386719 15.14179687 11.20023438 16.27734375 10.94921875 C17.17582031 10.63597656 18.07429688 10.32273437 19 10 C19.33 9.01 19.66 8.02 20 7 C20.495 10.96 20.495 10.96 21 15 C19.02 15.99 19.02 15.99 17 17 C17 17.66 17 18.32 17 19 C15.68 19.33 14.36 19.66 13 20 C13 20.66 13 21.32 13 22 C14.7015625 21.9690625 14.7015625 21.9690625 16.4375 21.9375 C20 22 20 22 21 23 C22.51469448 23.23192865 24.03754562 23.41215238 25.5625 23.5625 C26.38878906 23.64628906 27.21507812 23.73007813 28.06640625 23.81640625 C29.02353516 23.90728516 29.02353516 23.90728516 30 24 C29.505 26.475 29.505 26.475 29 29 C28.34 29 27.68 29 27 29 C26.505 30.485 26.505 30.485 26 32 C19.25 33.125 19.25 33.125 17 32 C17.45627898 36.56278985 17.81633435 39.94462093 20 44 C19.505 44.99 19.505 44.99 19 46 C17.0390625 46.4140625 17.0390625 46.4140625 14.625 46.625 C13.83351562 46.69976562 13.04203125 46.77453125 12.2265625 46.8515625 C10.48753275 46.96749782 8.74288998 47 7 47 C4.8614515 49.1385485 4.57344937 50.13275314 4 53 C1.125 52.6875 1.125 52.6875 -2 52 C-4.1519437 48.77208445 -4.20086443 47.71599191 -4 44 C-3.34 44 -2.68 44 -2 44 C-2.495 41.525 -2.495 41.525 -3 39 C-6.79198327 40.44987596 -10.38591705 42.15280205 -14 44 C-14.99 44.495 -14.99 44.495 -16 45 C-17.34050179 38.66308244 -17.34050179 38.66308244 -15.8125 35.6875 C-13.96316207 33.96570261 -12.27393335 33.06116889 -10 32 C-9.67 31.34 -9.34 30.68 -9 30 C-9.825 30.061875 -10.65 30.12375 -11.5 30.1875 C-15.88193696 29.95275338 -18.95495082 28.67381346 -23 27 C-22.6875 24.125 -22.6875 24.125 -22 21 C-19.68143083 19.45428722 -17.49361571 18.20381448 -15 17 C-15.52268466 14.23723823 -16.10869587 11.6739124 -17 9 C-14.29120665 7.64560332 -11.99066732 7.93498549 -9 8 C-8.38125 9.423125 -8.38125 9.423125 -7.75 10.875 C-5.9959869 14.00716624 -5.29148243 14.86500606 -2 16 C-2.04125 14.845 -2.0825 13.69 -2.125 12.5 C-2.14087433 8.05518699 -1.21793105 4.26275869 0 0 Z " fill="#FCF8F8" transform="translate(29,73)"/>
<path d="M0 0 C2.89683868 2.2015974 4.39297231 3.78594462 6 7 C6.37838031 12.01353911 6.13135639 15.00482115 3 19 C-0.00753295 22.17939197 -1.55565961 22.9365228 -5.9375 23.5625 C-10.6553005 23.33018407 -12.8006365 21.35543001 -16 18 C-17.62560673 13.1231798 -17.80931686 8.7727893 -15.6875 4.125 C-11.50296415 -1.14441551 -6.23694949 -0.92095307 0 0 Z " fill="#24273B" transform="translate(169,94)"/>
<path d="M0 0 C3.63 0 7.26 0 11 0 C10.34 0.66 9.68 1.32 9 2 C8.53603307 4.89223503 8.53603307 4.89223503 8.375 8.125 C8.25125 10.06375 8.1275 12.0025 8 14 C13.94 14 19.88 14 26 14 C25.87625 12.06125 25.7525 10.1225 25.625 8.125 C25.55539063 7.03445312 25.48578125 5.94390625 25.4140625 4.8203125 C25.26746509 1.86953526 25.26746509 1.86953526 23 0 C26.63 0 30.26 0 34 0 C33.01 0.33 32.02 0.66 31 1 C31 11.23 31 21.46 31 32 C31.99 32.33 32.98 32.66 34 33 C30.37 33 26.74 33 23 33 C23.33 32.34 23.66 31.68 24 31 C24.66 31 25.32 31 26 31 C26 26.38 26 21.76 26 17 C20.06 17 14.12 17 8 17 C8.12375 19.26875 8.2475 21.5375 8.375 23.875 C8.44460937 25.15117188 8.51421875 26.42734375 8.5859375 27.7421875 C8.67241106 31.08061699 8.67241106 31.08061699 11 33 C7.37 33 3.74 33 0 33 C0.66 32.34 1.32 31.68 2 31 C2.31217319 28.02132771 2.31217319 28.02132771 2.265625 24.53125 C2.26820312 23.23832031 2.27078125 21.94539063 2.2734375 20.61328125 C2.26924805 19.93861816 2.26505859 19.26395508 2.26074219 18.56884766 C2.2500407 16.50783843 2.26063943 14.44770081 2.2734375 12.38671875 C2.26957031 10.44732422 2.26957031 10.44732422 2.265625 8.46875 C2.26336914 7.27701172 2.26111328 6.08527344 2.25878906 4.85742188 C2.29560884 1.86864566 2.29560884 1.86864566 0 0 Z " fill="#1B1E32" transform="translate(63,83)"/>
<path d="M0 0 C1.98 0 3.96 0 6 0 C6 1.32 6 2.64 6 4 C6.66 4 7.32 4 8 4 C8.125 10.75 8.125 10.75 7 13 C8.98260599 12.57835981 10.96107245 12.13721222 12.9375 11.6875 C14.03964844 11.44386719 15.14179687 11.20023438 16.27734375 10.94921875 C17.17582031 10.63597656 18.07429688 10.32273437 19 10 C19.33 9.01 19.66 8.02 20 7 C20.33 9.64 20.66 12.28 21 15 C18.82563934 16.77170128 17.0116321 17.99556872 14.375 19 C11.68440435 19.87583581 11.68440435 19.87583581 10 23 C9.34 22.67 8.68 22.34 8 22 C8 19.69 8 17.38 8 15 C7.34 15 6.68 15 6 15 C5.67 15.99 5.34 16.98 5 18 C4.21625 17.938125 3.4325 17.87625 2.625 17.8125 C1.325625 17.9053125 1.325625 17.9053125 0 18 C-0.66 18.99 -1.32 19.98 -2 21 C-3.32 20.34 -4.64 19.68 -6 19 C-6 17.68 -6 16.36 -6 15 C-4.68 15.33 -3.36 15.66 -2 16 C-2.061875 14.2675 -2.061875 14.2675 -2.125 12.5 C-2.14087433 8.05518699 -1.21793105 4.26275869 0 0 Z " fill="#F9DCDB" transform="translate(29,73)"/>
<path d="M0 0 C3.39385072 0.07847054 4.8170872 0.18438732 7.75 2 C9.125 4.375 9.125 4.375 9.125 10.375 C4.175 10.375 -0.775 10.375 -5.875 10.375 C-5.215 13.015 -4.555 15.655 -3.875 18.375 C0.415 19.035 4.705 19.695 9.125 20.375 C6.44269816 23.05730184 4.55698814 23.3342464 0.8125 23.6875 C-3.60063017 23.31350592 -5.53758074 22.24673285 -8.875 19.375 C-10.98363429 15.73281349 -11.38462203 12.53691328 -10.875 8.375 C-6.09544434 0.09043686 -6.09544434 0.09043686 0 0 Z " fill="#23243A" transform="translate(110.875,93.625)"/>
<path d="M0 0 C6.625 -0.125 6.625 -0.125 10 1 C11.2375 1.0309375 11.2375 1.0309375 12.5 1.0625 C13.325 1.371875 14.15 1.68125 15 2 C15.77734375 3.80859375 15.77734375 3.80859375 16.4375 6 C17.03999856 8.16694838 17.03999856 8.16694838 18 10 C21.07797583 11.14031566 21.07797583 11.14031566 24 11 C20.84343086 12.87055949 18.64314294 13.18682784 15 13 C14.01 13 13.02 13 12 13 C9.8614515 15.1385485 9.57344937 16.13275314 9 19 C6.125 18.6875 6.125 18.6875 3 18 C0.8480563 14.77208445 0.79913557 13.71599191 1 10 C1.66 10 2.32 10 3 10 C2.65555119 7.52733235 2.65555119 7.52733235 2 5 C1.34 4.67 0.68 4.34 0 4 C0 2.68 0 1.36 0 0 Z " fill="#FCE9E9" transform="translate(24,107)"/>
<path d="M0 0 C2.67335724 2.75959457 3.19880826 5.27883049 3.375 9 C3.22774663 13.09984379 1.93990882 16.06009118 -1 19 C-3.86264617 19.30133118 -5.4047729 19.44642032 -7.75 17.6875 C-10.02664693 14.61402665 -10.1839248 11.70021112 -10.25 8 C-10.27578125 7.13375 -10.3015625 6.2675 -10.328125 5.375 C-10 3 -10 3 -8.703125 1.21875 C-5.80073608 -0.85818886 -3.42342064 -0.48906009 0 0 Z " fill="#F5F6F8" transform="translate(167,96)"/>
<path d="M0 0 C1.08667969 0.02707031 2.17335937 0.05414063 3.29296875 0.08203125 C4.54013672 0.13423828 4.54013672 0.13423828 5.8125 0.1875 C5.4825 2.1675 5.1525 4.1475 4.8125 6.1875 C4.1525 5.8575 3.4925 5.5275 2.8125 5.1875 C2.8125 4.1975 2.8125 3.2075 2.8125 2.1875 C0.5025 2.5175 -1.8075 2.8475 -4.1875 3.1875 C-4.1875 4.5075 -4.1875 5.8275 -4.1875 7.1875 C-3.47722656 7.53683594 -2.76695312 7.88617188 -2.03515625 8.24609375 C-1.11605469 8.70113281 -0.19695312 9.15617187 0.75 9.625 C1.66652344 10.07746094 2.58304688 10.52992187 3.52734375 10.99609375 C5.8125 12.1875 5.8125 12.1875 6.8125 13.1875 C6.57994186 19.46656977 6.57994186 19.46656977 3.75 22.125 C-0.16419516 23.54077272 -3.03001218 23.46012215 -7.1875 23.1875 C-7.8475 22.8575 -8.5075 22.5275 -9.1875 22.1875 C-9.1875 20.2075 -9.1875 18.2275 -9.1875 16.1875 C-8.5275 15.8575 -7.8675 15.5275 -7.1875 15.1875 C-6.5275 16.8375 -5.8675 18.4875 -5.1875 20.1875 C-1.7225 19.6925 -1.7225 19.6925 1.8125 19.1875 C1.65746946 17.23852742 1.65746946 17.23852742 0.8125 15.1875 C-1.23006977 13.90763805 -1.23006977 13.90763805 -3.6875 13.0625 C-8.09356654 11.37536693 -8.09356654 11.37536693 -9.1875 9.1875 C-9.64074446 3.86187757 -9.64074446 3.86187757 -8.05859375 1.5078125 C-5.35400438 -0.40064513 -3.26706804 -0.10538929 0 0 Z " fill="#202237" transform="translate(188.1875,93.8125)"/>
<path d="M0 0 C0.01458252 0.98919434 0.02916504 1.97838867 0.04418945 2.99755859 C0.1020897 6.66182919 0.17932152 10.32547985 0.26245117 13.98925781 C0.2957398 15.57606965 0.32375947 17.16300103 0.34643555 18.75 C0.37991078 21.02916484 0.4322186 23.30723041 0.48828125 25.5859375 C0.49467117 26.29744965 0.5010611 27.00896179 0.50764465 27.74203491 C0.54009648 29.9600456 0.54009648 29.9600456 1 33 C1.99 33.66 2.98 34.32 4 35 C0.37 35 -3.26 35 -7 35 C-6.34 34.34 -5.68 33.68 -5 33 C-4.62653332 29.79461597 -4.62653332 29.79461597 -4.5859375 26.0234375 C-4.56657135 25.33819 -4.5472052 24.6529425 -4.5272522 23.94692993 C-4.46743169 21.75641356 -4.42106244 19.5658447 -4.375 17.375 C-4.33682237 15.89060198 -4.29777076 14.40622616 -4.2578125 12.921875 C-4.16172916 9.28145315 -4.07770718 5.64086564 -4 2 C-4.99 1.67 -5.98 1.34 -7 1 C-4.53721199 -0.231394 -2.7204945 -0.07159196 0 0 Z " fill="#0D1027" transform="translate(131,81)"/>
<path d="M0 0 C0.66 0 1.32 0 2 0 C2 4.62 2 9.24 2 14 C3.32 14.33 4.64 14.66 6 15 C6.07347656 16.58941406 6.07347656 16.58941406 6.1484375 18.2109375 C6.22346709 19.59898497 6.29901485 20.98700451 6.375 22.375 C6.4059375 23.07367188 6.436875 23.77234375 6.46875 24.4921875 C6.59499498 28.70185827 6.59499498 28.70185827 9 32 C5.37 32 1.74 32 -2 32 C-1.34 31.34 -0.68 30.68 0 30 C0.27904629 26.88961056 0.27904629 26.88961056 0.1953125 23.2421875 C0.19106766 22.24761032 0.19106766 22.24761032 0.18673706 21.23294067 C0.17553435 19.11344417 0.15043051 16.99436896 0.125 14.875 C0.11497028 13.43880818 0.10584441 12.00260975 0.09765625 10.56640625 C0.075595 7.04413372 0.04106494 3.52210797 0 0 Z " fill="#2F3148" transform="translate(65,84)"/>
<path d="M0 0 C0.01458252 0.59538574 0.02916504 1.19077148 0.04418945 1.80419922 C0.11854344 4.49513051 0.21524187 7.18480333 0.3125 9.875 C0.33505859 10.81214844 0.35761719 11.74929687 0.38085938 12.71484375 C0.41630859 13.61074219 0.45175781 14.50664063 0.48828125 15.4296875 C0.51446533 16.25710449 0.54064941 17.08452148 0.56762695 17.93701172 C0.83096637 20.39327932 0.83096637 20.39327932 4 22 C0.37 22 -3.26 22 -7 22 C-6.34 21.34 -5.68 20.68 -5 20 C-4.69324768 17.10032243 -4.48826629 14.28216822 -4.375 11.375 C-4.33632812 10.57320312 -4.29765625 9.77140625 -4.2578125 8.9453125 C-4.16346069 6.96392444 -4.08063785 4.98199355 -4 3 C-5.32 2.67 -6.64 2.34 -8 2 C-4.91190305 0.23537317 -3.76687864 0 0 0 Z " fill="#161A2E" transform="translate(145,94)"/>
<path d="M0 0 C3.63 0 7.26 0 11 0 C10.01 0.33 9.02 0.66 8 1 C8 10.9 8 20.8 8 31 C7.67 31 7.34 31 7 31 C6.67 25.39 6.34 19.78 6 14 C5.01 14.495 5.01 14.495 4 15 C2.55151418 15.08342159 1.09929131 15.10732861 -0.3515625 15.09765625 C-1.20234375 15.09443359 -2.053125 15.09121094 -2.9296875 15.08789062 C-3.81914063 15.07951172 -4.70859375 15.07113281 -5.625 15.0625 C-6.97078125 15.05573242 -6.97078125 15.05573242 -8.34375 15.04882812 C-10.56256648 15.03702591 -12.78125018 15.02056155 -15 15 C-15 14.67 -15 14.34 -15 14 C-9.06 14 -3.12 14 3 14 C2.87625 12.06125 2.7525 10.1225 2.625 8.125 C2.55539063 7.03445312 2.48578125 5.94390625 2.4140625 4.8203125 C2.26746509 1.86953526 2.26746509 1.86953526 0 0 Z " fill="#4F5267" transform="translate(86,83)"/>
<path d="M0 0 C2.4375 0.6875 2.4375 0.6875 5 2 C5.9375 4.4375 5.9375 4.4375 6 7 C5.01 8.485 5.01 8.485 4 10 C3.60986284 11.9896995 3.26797351 13.99019869 3 16 C1.125 15.6875 1.125 15.6875 -1 15 C-3 12 -3 12 -2.75 9.75 C-1.86125001 6.49125005 -0.95310577 3.2405596 0 0 Z " fill="#CF4A51" transform="translate(29,109)"/>
<path d="M0 0 C2.14762184 3.22143276 2.561068 4.2595467 2 8 C-0.58781768 10.58781768 -3.55406496 11.85135499 -7 13 C-7.99 13 -8.98 13 -10 13 C-10 11.02 -10 9.04 -10 7 C-8.71086513 6.32845067 -7.41859796 5.66291141 -6.125 5 C-5.40570313 4.62875 -4.68640625 4.2575 -3.9453125 3.875 C-2 3 -2 3 0 3 C0 2.01 0 1.02 0 0 Z " fill="#D64347" transform="translate(48,80)"/>
<path d="M0 0 C3.09533441 2.97628309 4.41735049 7.08105836 6 11 C5 12 5 12 1.9375 12.0625 C0.968125 12.041875 -0.00125 12.02125 -1 12 C-1.25394531 11.37351562 -1.50789063 10.74703125 -1.76953125 10.1015625 C-2.11371094 9.28429687 -2.45789062 8.46703125 -2.8125 7.625 C-3.14894531 6.81289062 -3.48539063 6.00078125 -3.83203125 5.1640625 C-4.94439082 2.69852542 -4.94439082 2.69852542 -8 1 C-4.97923697 -0.00692101 -3.1408885 -0.39261106 0 0 Z " fill="#DB373D" transform="translate(43,106)"/>
<path d="M0 0 C0 1.98 0 3.96 0 6 C-1.45804169 6.81302325 -2.91644315 7.62540131 -4.375 8.4375 C-5.18710937 8.88996094 -5.99921875 9.34242187 -6.8359375 9.80859375 C-8.20996622 10.5650536 -9.59709261 11.29854631 -11 12 C-11.33 9.69 -11.66 7.38 -12 5 C-4.04545455 0 -4.04545455 0 0 0 Z " fill="#DA4046" transform="translate(24,106)"/>
<path d="M0 0 C4.09848055 0.30359115 6.68770642 1.48009908 10.375 3.25 C9.5 7.125 9.5 7.125 8.375 8.25 C3.79022012 7.80051178 -0.3039261 6.8308807 -4.625 5.25 C-3.51510989 0.33477237 -3.51510989 0.33477237 0 0 Z " fill="#D44146" transform="translate(10.625,94.75)"/>
<path d="M0 0 C1.98 0.99 3.96 1.98 6 3 C5.343621 7.48525648 4.29925791 11.66914029 3 16 C0.525 15.01 0.525 15.01 -2 14 C-2.25328119 8.93437617 -1.33583899 4.84241633 0 0 Z " fill="#CC4249" transform="translate(30,74)"/>
<path d="M0 0 C0.26554687 0.62648438 0.53109375 1.25296875 0.8046875 1.8984375 C1.15789063 2.71570313 1.51109375 3.53296875 1.875 4.375 C2.39707031 5.59316406 2.39707031 5.59316406 2.9296875 6.8359375 C3.92446067 9.13802299 3.92446067 9.13802299 6 11 C3.69 11.33 1.38 11.66 -1 12 C-2.44413871 9.63686392 -3.85192702 7.30485613 -5.0625 4.8125 C-5.97608662 2.82177761 -5.97608662 2.82177761 -8 1 C-5.29120665 -0.35439668 -2.99066732 -0.06501451 0 0 Z " fill="#CE4248" transform="translate(20,81)"/>
<path d="M0 0 C4.58477988 0.44948822 8.6789261 1.4191193 13 3 C12.34 4.65 11.68 6.3 11 8 C5.76824163 8.38281159 2.62197306 7.21854707 -2 5 C-1.125 1.125 -1.125 1.125 0 0 Z " fill="#D33439" transform="translate(43,96)"/>
<path d="M0 0 C1.32 0 2.64 0 4 0 C3.91621094 1.13179688 3.83242187 2.26359375 3.74609375 3.4296875 C3.64293392 4.91143781 3.54008547 6.39320982 3.4375 7.875 C3.38142578 8.62136719 3.32535156 9.36773437 3.26757812 10.13671875 C2.86611075 14.19061542 2.86611075 14.19061542 4 18 C1.71216703 17.08486681 0.26550272 16.34515354 -1.25 14.375 C-2.61398283 10.05572103 -2.68728416 5.71821039 -1 1.5 C-0.67 1.005 -0.34 0.51 0 0 Z " fill="#171A30" transform="translate(154,97)"/>
<path d="M0 0 C3.63 0 7.26 0 11 0 C10.34 0.66 9.68 1.32 9 2 C8.75622117 5.35744112 8.75622117 5.35744112 8.875 9.125 C8.90207031 11.04699219 8.90207031 11.04699219 8.9296875 13.0078125 C8.95289062 13.99523437 8.97609375 14.98265625 9 16 C7.35 15.67 5.7 15.34 4 15 C4 10.38 4 5.76 4 1 C2.68 0.67 1.36 0.34 0 0 Z " fill="#0E1029" transform="translate(63,83)"/>
<path d="M0 0 C3.4375 1.25 3.4375 1.25 7 3 C7.9375 5.1875 7.9375 5.1875 8 7 C4.77208445 9.1519437 3.71599191 9.20086443 0 9 C-1.125 6.75 -1.125 6.75 -2 4 C-1.125 1.6875 -1.125 1.6875 0 0 Z " fill="#EDEEF2" transform="translate(183,106)"/>
<path d="M0 0 C2.97 0 5.94 0 9 0 C8.67 1.65 8.34 3.3 8 5 C7.34 5 6.68 5 6 5 C5.67 5.99 5.34 6.98 5 8 C-0.63655304 9.40913826 -3.44153116 8.73956036 -8.49609375 5.91015625 C-8.99238281 5.60980469 -9.48867188 5.30945313 -10 5 C-10 4.67 -10 4.34 -10 4 C-3.125 4.875 -3.125 4.875 -2 6 C-0.00041636 6.04080783 2.00045254 6.04254356 4 6 C4.66 4.68 5.32 3.36 6 2 C3.03 1.505 3.03 1.505 0 1 C0 0.67 0 0.34 0 0 Z M-12 8 C-9.69 8 -7.38 8 -5 8 C-5.33 8.99 -5.66 9.98 -6 11 C-7.98 10.34 -9.96 9.68 -12 9 C-12 8.67 -12 8.34 -12 8 Z " fill="#F9D8D9" transform="translate(50,97)"/>
<path d="M0 0 C1.670625 0.061875 1.670625 0.061875 3.375 0.125 C4.5 2.4375 4.5 2.4375 5.375 5.125 C4.385 6.61 4.385 6.61 3.375 8.125 C-3.27115385 6.64807692 -3.27115385 6.64807692 -5.0625 4 C-5.248125 3.38125 -5.43375 2.7625 -5.625 2.125 C-3.625 0.125 -3.625 0.125 0 0 Z " fill="#EDEFF1" transform="translate(187.625,95.875)"/>
<path d="M0 0 C3 2 3 2 3.625 4.12890625 C3.87539198 5.7538459 4.12539077 7.37884618 4.375 9.00390625 C4.58125 9.66261719 4.7875 10.32132813 5 11 C5.99 11.33 6.98 11.66 8 12 C4.8250906 13.9078584 2.89414789 14.1609041 -0.75 13.625 C-1.54921875 13.51414062 -2.3484375 13.40328125 -3.171875 13.2890625 C-4.07679687 13.14597656 -4.07679687 13.14597656 -5 13 C-5 12.01 -5 11.02 -5 10 C-3.02 9.34 -1.04 8.68 1 8 C1.08226668 4.95613276 0.97608217 2.92824652 0 0 Z " fill="#FCEFEE" transform="translate(13,83)"/>
<path d="M0 0 C4.55555556 0.55555556 4.55555556 0.55555556 6 2 C6.04063832 3.66617115 6.042721 5.33388095 6 7 C3.03 7 0.06 7 -3 7 C-2.25 2.25 -2.25 2.25 0 0 Z " fill="#F1F1F5" transform="translate(109,95)"/>
<path d="M0 0 C2.9375 1.0625 2.9375 1.0625 6 3 C6.75 6.625 6.75 6.625 7 10 C7.66 10.33 8.32 10.66 9 11 C6 12 6 12 2 12 C1.51171875 10.01432292 1.0234375 8.02864583 0.53515625 6.04296875 C0.08989295 4.34316798 -0.44433985 2.66698046 -1 1 C-0.67 0.67 -0.34 0.34 0 0 Z " fill="#F3F3F7" transform="translate(173,95)"/>
<path d="M0 0 C1.60332791 -0.08121924 3.20784026 -0.13929134 4.8125 -0.1875 C6.15248047 -0.23970703 6.15248047 -0.23970703 7.51953125 -0.29296875 C10.41647515 0.04918998 11.22555028 0.75393573 13 3 C12.01 3 11.02 3 10 3 C10 4.98 10 6.96 10 9 C6.37 9 2.74 9 -1 9 C-0.67 8.01 -0.34 7.02 0 6 C0 6.66 0 7.32 0 8 C2.97 8 5.94 8 9 8 C8.34 6.02 7.68 4.04 7 2 C3.39007621 2.65585189 3.39007621 2.65585189 0 4 C0 2.68 0 1.36 0 0 Z " fill="#414251" transform="translate(106,94)"/>
<path d="M0 0 C1.125 3.75 1.125 3.75 0 6 C0.66 6.33 1.32 6.66 2 7 C2 7.99 2 8.98 2 10 C-2.455 11.485 -2.455 11.485 -7 13 C-7 12.34 -7 11.68 -7 11 C-6.360625 10.7525 -5.72125 10.505 -5.0625 10.25 C-2.84138939 9.20121972 -2.84138939 9.20121972 -2.3125 7.0625 C-2.209375 6.381875 -2.10625 5.70125 -2 5 C-1.67 4.01 -1.34 3.02 -1 2 C-2.32 1.67 -3.64 1.34 -5 1 C-3.35 0.67 -1.7 0.34 0 0 Z " fill="#F5D7D7" transform="translate(22,96)"/>
<path d="M0 0 C1.98 0 3.96 0 6 0 C5.34 1.32 4.68 2.64 4 4 C3.01 4 2.02 4 1 4 C-1.32590854 7.63423209 -1.16265833 10.77088331 -1 15 C-1.66 15 -2.32 15 -3 15 C-3.6875 13.4375 -3.6875 13.4375 -4 11 C-3.07175817 8.6372026 -2.06902939 6.30252483 -1 4 C-0.62691369 2.67723944 -0.26953585 1.34767923 0 0 Z " fill="#FDF1F2" transform="translate(14,103)"/>
<path d="M0 0 C1.32 0.33 2.64 0.66 4 1 C4 2.98 4 4.96 4 7 C-0.95 7 -5.9 7 -11 7 C-11 6.67 -11 6.34 -11 6 C-7.37 6 -3.74 6 0 6 C0 4.02 0 2.04 0 0 Z " fill="#111226" transform="translate(116,97)"/>
<path d="M0 0 C2 2 2 2 3 5 C5.31 5.33 7.62 5.66 10 6 C9.67 6.66 9.34 7.32 9 8 C1.25 8.125 1.25 8.125 -1 7 C-1.04254356 5.00045254 -1.04080783 2.99958364 -1 1 C-0.67 0.67 -0.34 0.34 0 0 Z " fill="#323340" transform="translate(180,109)"/>
<path d="M0 0 C0.99 0.33 1.98 0.66 3 1 C3 1.66 3 2.32 3 3 C3.99 3 4.98 3 6 3 C6 4.98 6 6.96 6 9 C4.68 8.67 3.36 8.34 2 8 C1.34 5.36 0.68 2.72 0 0 Z " fill="#D82E31" transform="translate(15,83)"/>
<path d="M0 0 C0.515625 0.804375 1.03125 1.60875 1.5625 2.4375 C4.63205757 5.66447078 6.64868459 5.74896257 11 6 C10.67 6.66 10.34 7.32 10 8 C3.9453125 8.1953125 3.9453125 8.1953125 2 8 C0 6 0 6 -1 3 C-0.67 2.01 -0.34 1.02 0 0 Z " fill="#383949" transform="translate(157,109)"/>
<path d="M0 0 C4.455 0.99 4.455 0.99 9 2 C8 4 8 4 5.625 5.125 C3 6 3 6 0 6 C0 4.02 0 2.04 0 0 Z " fill="#D44148" transform="translate(38,87)"/>
<path d="M0 0 C1.65 0 3.3 0 5 0 C6.60031344 3.20062687 5.03173691 5.72271806 4 9 C3.71125 8.360625 3.4225 7.72125 3.125 7.0625 C2.17176549 4.84793921 2.17176549 4.84793921 0 4 C0 2.68 0 1.36 0 0 Z " fill="#F9E0E1" transform="translate(24,107)"/>
<path d="M0 0 C6.75 0.75 6.75 0.75 9 3 C8.34 3 7.68 3 7 3 C7 3.66 7 4.32 7 5 C6.34 5 5.68 5 5 5 C4.34 4.34 3.68 3.68 3 3 C0.39719432 3.32041397 0.39719432 3.32041397 -2 4 C-1.34 2.68 -0.68 1.36 0 0 Z " fill="#D8454B" transform="translate(43,96)"/>
<path d="M0 0 C1.39195915 4.17587745 -0.17676781 6.13474776 -2 10 C-2.66 9.67 -3.32 9.34 -4 9 C-4.125 3.25 -4.125 3.25 -3 1 C-2.01 0.67 -1.02 0.34 0 0 Z " fill="#E52F36" transform="translate(33,77)"/>
<path d="M0 0 C0.66 0.33 1.32 0.66 2 1 C2.125 6.75 2.125 6.75 1 9 C-0.32 8.67 -1.64 8.34 -3 8 C-2.67 6.68 -2.34 5.36 -2 4 C-1.34 4 -0.68 4 0 4 C0 2.68 0 1.36 0 0 Z " fill="#E12A2C" transform="translate(31,112)"/>
<path d="M0 0 C-0.66 1.65 -1.32 3.3 -2 5 C-2.66 5 -3.32 5 -4 5 C-4 4.34 -4 3.68 -4 3 C-5.65 4.32 -7.3 5.64 -9 7 C-9 6.01 -9 5.02 -9 4 C-6.26356786 1.54664705 -3.78113942 0 0 0 Z " fill="#F9E1DD" transform="translate(23,113)"/>
<path d="M0 0 C0.33 0.99 0.66 1.98 1 3 C-0.28913487 3.67154933 -1.58140204 4.33708859 -2.875 5 C-3.59429688 5.37125 -4.31359375 5.7425 -5.0546875 6.125 C-7 7 -7 7 -9 7 C-8 4 -8 4 -6.15234375 2.83203125 C-5.42144531 2.49558594 -4.69054687 2.15914063 -3.9375 1.8125 C-3.20402344 1.46832031 -2.47054688 1.12414062 -1.71484375 0.76953125 C-1.14894531 0.51558594 -0.58304688 0.26164062 0 0 Z " fill="#CD3034" transform="translate(23,109)"/>
<path d="M0 0 C1.54571278 2.31856917 2.79618552 4.50638429 4 7 C3 8 3 8 -0.0625 8.0625 C-1.031875 8.041875 -2.00125 8.02125 -3 8 C-3.66 6.35 -4.32 4.7 -5 3 C-4.01 3.495 -4.01 3.495 -3 4 C-3 4.66 -3 5.32 -3 6 C-1.68 6.33 -0.36 6.66 1 7 C0.67 4.69 0.34 2.38 0 0 Z " fill="#CA474F" transform="translate(45,110)"/>
<path d="M0 0 C1.65 0 3.3 0 5 0 C4.67 1.65 4.34 3.3 4 5 C2.68 4.67 1.36 4.34 0 4 C0 2.68 0 1.36 0 0 Z " fill="#212336" transform="translate(140,83)"/>
<path d="M0 0 C1.65 0.33 3.3 0.66 5 1 C3.35 2.98 1.7 4.96 0 7 C-0.99 6.34 -1.98 5.68 -3 5 C-2.01 3.35 -1.02 1.7 0 0 Z " fill="#28283B" transform="translate(169,109)"/>
<path d="M0 0 C0.33 0 0.66 0 1 0 C0.67 2.64 0.34 5.28 0 8 C-0.99 7.67 -1.98 7.34 -3 7 C-2.25 2.25 -2.25 2.25 0 0 Z " fill="#14162D" transform="translate(105,95)"/>
<path d="M0 0 C3.3 0 6.6 0 10 0 C9.67 1.98 9.34 3.96 9 6 C7 5 7 5 6 2 C3.03 1.505 3.03 1.505 0 1 C0 0.67 0 0.34 0 0 Z " fill="#1D1E2D" transform="translate(184,94)"/>
<path d="M0 0 C2.97 0.33 5.94 0.66 9 1 C8.67 1.66 8.34 2.32 8 3 C6.824375 2.9690625 6.824375 2.9690625 5.625 2.9375 C3.01885039 2.81315937 3.01885039 2.81315937 1 4 C0.67 2.68 0.34 1.36 0 0 Z " fill="#D72B2F" transform="translate(12,97)"/>
<path d="M0 0 C3.63 0 7.26 0 11 0 C11 0.33 11 0.66 11 1 C9.02 1.33 7.04 1.66 5 2 C4.67 4.31 4.34 6.62 4 9 C3.67 9 3.34 9 3 9 C2.87625 7.88625 2.7525 6.7725 2.625 5.625 C2.3534187 1.96896323 2.3534187 1.96896323 0 0 Z " fill="#121523" transform="translate(86,83)"/>
<path d="M0 0 C0.33 0.66 0.66 1.32 1 2 C-3.455 3.485 -3.455 3.485 -8 5 C-8 4.01 -8 3.02 -8 2 C-5.36 1.34 -2.72 0.68 0 0 Z " fill="#D62B30" transform="translate(47,84)"/>
<path d="M0 0 C2.625 0.9375 2.625 0.9375 5 2 C2.8614515 4.1385485 1.86724686 4.42655063 -1 5 C-1.33 3.68 -1.66 2.36 -2 1 C-1.34 0.67 -0.68 0.34 0 0 Z " fill="#FCEAEA" transform="translate(41,81)"/>
<path d="M0 0 C0.66 0 1.32 0 2 0 C2 3.96 2 7.92 2 12 C1.67 12 1.34 12 1 12 C0.855625 10.906875 0.71125 9.81375 0.5625 8.6875 C0.11711896 5.06877013 0.11711896 5.06877013 -1 2 C-0.67 1.34 -0.34 0.68 0 0 Z " fill="#0E1028" transform="translate(143,94)"/>
<path d="M0 0 C0 0.33 0 0.66 0 1 C-3.63 1 -7.26 1 -11 1 C-7.14260851 -2.85739149 -4.71895155 -1.78271503 0 0 Z " fill="#181C2C" transform="translate(135,115)"/>
<path d="M0 0 C0.33 0.99 0.66 1.98 1 3 C1.66 3 2.32 3 3 3 C2.67 4.32 2.34 5.64 2 7 C1.01 6.67 0.02 6.34 -1 6 C-0.67 4.02 -0.34 2.04 0 0 Z " fill="#D94C56" transform="translate(29,118)"/>
<path d="M0 0 C3.86107457 2.57404971 3.94319692 4.61020259 5 9 C3.68 8.67 2.36 8.34 1 8 C1.020625 7.236875 1.04125 6.47375 1.0625 5.6875 C1.12942841 2.89814214 1.12942841 2.89814214 0 0 Z " fill="#FBD5D8" transform="translate(13,83)"/>
</svg>
